<svg width="748" height="464" viewBox="0 0 748 464" fill="none" xmlns="http://www.w3.org/2000/svg">
<g clip-path="url(#clip0_5_3)">
<rect width="748" height="464" fill="white"/>
<path d="M614 92C492.02 190.534 528.436 70.3815 396 0H0V368C0 368 72 516 108 420C144 324 216 472 216 472H748V140.763C748 123.871 735.98 -6.53406 614 92Z" fill="url(#paint0_linear_5_3)"/>
<ellipse cx="27.9769" cy="30.5" rx="13.9769" ry="14.5" fill="white"/>
<ellipse cx="79.0231" cy="30.5" rx="13.9769" ry="14.5" fill="white"/>
<ellipse cx="44.9923" cy="30.5" rx="13.9769" ry="14.5" fill="white"/>
<ellipse cx="60.4885" cy="30.5" rx="13.9769" ry="14.5" fill="white"/>
<ellipse cx="107" cy="281" rx="46" ry="45" fill="url(#paint1_linear_5_3)"/>
<ellipse cx="641" cy="395" rx="46" ry="45" fill="url(#paint2_linear_5_3)"/>
</g>
<defs>
<linearGradient id="paint0_linear_5_3" x1="374" y1="0" x2="374" y2="472" gradientUnits="userSpaceOnUse">
<stop stop-color="#6A8ED3" stop-opacity="0.63"/>
<stop offset="1" stop-color="#21C8FD" stop-opacity="0.65"/>
</linearGradient>
<linearGradient id="paint1_linear_5_3" x1="73" y1="252" x2="131" y2="236" gradientUnits="userSpaceOnUse">
<stop stop-color="#82CEF4"/>
<stop offset="1" stop-color="#AE5BE1" stop-opacity="0.88"/>
</linearGradient>
<linearGradient id="paint2_linear_5_3" x1="677" y1="407" x2="665" y2="350" gradientUnits="userSpaceOnUse">
<stop stop-color="#72D9FC"/>
<stop offset="1" stop-color="#AE5BE1" stop-opacity="0.88"/>
</linearGradient>
<clipPath id="clip0_5_3">
<rect width="748" height="464" fill="white"/>
</clipPath>
</defs>
</svg>
